<?xml version="1.0" encoding="UTF-8"?>
<svg width="24px" height="24px" viewBox="0 0 24 24" version="1.1" xmlns="http://www.w3.org/2000/svg" xmlns:xlink="http://www.w3.org/1999/xlink">
    <!-- Generator: Sketch 48.1 (47250) - http://www.bohemiancoding.com/sketch -->
    <title>Page 1</title>
    <desc>Created with Sketch.</desc>
    <defs></defs>
    <g id="05a_Reporting_Bloomington" stroke="none" stroke-width="1" fill="none" fill-rule="evenodd" transform="translate(-1014.000000, -473.000000)">
        <g id="report-cards" transform="translate(126.000000, 175.000000)" fill="#4192EC" stroke="#3F7E8D" stroke-width="0.5">
            <g id="quarterly-actual" transform="translate(860.000000, 260.000000)">
                <g id="Group-5" transform="translate(20.000000, 30.000000)">
                    <path d="M17.6081793,22.3749258 L17.6081793,17.8292786 C17.6081793,17.3630584 18.3207376,17.3630584 18.3207376,17.8292786 L18.3207376,22.3749258 C18.3207376,22.8411461 17.6062792,22.8411461 17.6081793,22.3749258 Z M31,9.34966517 L31,17.8292786 C31,18.0222938 30.8403869,18.1789438 30.6437208,18.1789438 L26.8714372,18.1789438 L26.8714372,30.6503348 C26.8714372,30.84335 26.7118241,31 26.5151581,31 L13.4810416,31 C13.2843755,31 13.1247625,30.84335 13.1247625,30.6503348 L13.1247625,18.1789438 L9.35627915,18.1789438 C9.15961306,18.1789438 9,18.0222938 9,17.8292786 L9,9.34966517 C9,9.15665 9.15961306,9 9.35627915,9 L30.6437208,9 C30.8403869,9 31,9.15665 31,9.34966517 Z M26.1588789,15.32148 L13.8373208,15.32148 L13.8373208,30.3006697 L26.1588789,30.3006697 L26.1588789,15.32148 Z M30.2874417,9.69933034 L9.7125583,9.69933034 L9.7125583,17.4796135 L13.1285628,17.4796135 L13.1285628,15.32148 L11.7034462,15.32148 C11.2284073,15.32148 11.2284073,14.6221497 11.7034462,14.6221497 L28.2704267,14.6221497 C28.7454655,14.6221497 28.7454655,15.32148 28.2704267,15.32148 L26.8453101,15.32148 L26.8453101,17.4796135 L30.2579893,17.4796135 L30.2579893,9.69933034 L30.2874417,9.69933034 Z M17.9644585,26.8786132 C18.1611245,26.8786132 18.3207376,26.7219632 18.3207376,26.528948 L18.3207376,24.822582 C18.3207376,24.3563618 17.6081793,24.3563618 17.6081793,24.822582 L17.6081793,26.528948 C17.6081793,26.7219632 17.7677924,26.8767483 17.9644585,26.8786132 Z" id="Page-1"></path>
                </g>
            </g>
        </g>
    </g>
</svg>