<?xml version="1.0" encoding="UTF-8"?>
<svg width="18px" height="24px" viewBox="0 0 18 24" version="1.1" xmlns="http://www.w3.org/2000/svg" xmlns:xlink="http://www.w3.org/1999/xlink">
    <!-- Generator: Sketch 48.1 (47250) - http://www.bohemiancoding.com/sketch -->
    <title>Page 1</title>
    <desc>Created with Sketch.</desc>
    <defs></defs>
    <g id="05a_Reporting_Bloomington" stroke="none" stroke-width="1" fill="none" fill-rule="evenodd" transform="translate(-1017.000000, -344.000000)">
        <g id="report-cards" transform="translate(126.000000, 175.000000)" fill="#3F7E8D">
            <g id="adjustment" transform="translate(860.000000, 130.000000)">
                <g id="Group-5" transform="translate(20.000000, 30.000000)">
                    <g id="Page-1" transform="translate(20.000000, 21.000000) rotate(-330.000000) translate(-20.000000, -21.000000) translate(16.000000, 8.000000)">
                        <path d="M6.03791304,19.9954247 L6.03791304,9.29660274 C6.03791304,8.02758904 6.36695652,6.88536986 6.98921739,5.99068493 C7.4333913,5.35493151 7.66852174,4.60235616 7.66852174,3.81772603 C7.66852174,2.85750685 7.39130435,2.1480274 6.74191304,1.44424658 L6.31513043,0.98230137 L5.144,3.78139726 C5.06121739,3.97906849 4.83826087,4.08057534 4.64,4.01254795 L3.70782609,3.69378082 C3.60173913,3.65780822 3.51756522,3.58123288 3.46886957,3.47830137 C3.42121739,3.37536986 3.41565217,3.25819178 3.45530435,3.15134247 L4.58956522,0.0527123288 L3.99443478,0.061260274 C1.97565217,0.0847671233 0.331478261,1.76978082 0.331478261,3.81772603 C0.331478261,4.60235616 0.566608696,5.35493151 1.01078261,5.99068493 C1.63304348,6.88536986 1.96208696,8.0290137 1.96208696,9.29660274 L1.96208696,19.994 C1.01634783,20.767589 0.570782609,21.9888767 0.796173913,23.2340274 C1.03652174,24.5571781 2.0626087,25.6174795 3.3506087,25.8735616 C3.56521739,25.9166575 3.78121739,25.9373151 3.99443478,25.9373151 C4.75130435,25.9373151 5.48382609,25.6730411 6.0733913,25.1765479 C6.82747826,24.5404384 7.26086957,23.6001644 7.26086957,22.5996986 C7.26086957,21.5853425 6.80695652,20.6269041 6.03791304,19.9954247 Z M5.55443478,24.5336712 C4.98782609,25.0109315 4.24173913,25.2014795 3.5053913,25.0554521 C2.54469565,24.8645479 1.77704348,24.071726 1.59791304,23.0826575 C1.41843478,22.0893151 1.80313043,21.1180548 2.60313043,20.546411 L2.77704348,20.4210411 L2.77704348,9.29660274 C2.77704348,7.85378082 2.39547826,6.54309589 1.67373913,5.50665753 C1.32869565,5.01123288 1.14678261,4.42854795 1.14678261,3.81772603 C1.14678261,2.44043836 2.10608696,1.27435616 3.38434783,0.972328767 L2.69286957,2.86035616 C2.576,3.1819726 2.58956522,3.52958904 2.73495652,3.83980822 C2.87895652,4.1500274 3.1346087,4.37975342 3.45113043,4.48838356 L4.38330435,4.80679452 C4.98226087,5.01123288 5.6466087,4.70528767 5.89391304,4.11263014 L6.54886957,2.54728767 C6.76208696,2.91876712 6.85321739,3.31268493 6.85321739,3.81772603 C6.85321739,4.42854795 6.67130435,5.01123288 6.32626087,5.50665753 C5.60452174,6.54309589 5.22295652,7.85378082 5.22295652,9.29660274 L5.22295652,20.4210411 L5.39686957,20.546411 C6.05286957,21.0165479 6.44556522,21.7830137 6.44556522,22.5996986 C6.44556522,23.3497808 6.12104348,24.0549863 5.55443478,24.5336712 Z" id="Fill-1"></path>
                        <path d="M4,20.9303562 C3.10052174,20.9303562 2.3693913,21.6786575 2.3693913,22.5996986 C2.3693913,23.5207397 3.10052174,24.2693973 4,24.2693973 C4.89947826,24.2693973 5.6306087,23.5207397 5.6306087,22.5996986 C5.6306087,21.6786575 4.89947826,20.9303562 4,20.9303562 Z M4,23.4345479 C3.55026087,23.4345479 3.18469565,23.0602192 3.18469565,22.5996986 C3.18469565,22.1391781 3.55026087,21.7648493 4,21.7648493 C4.44973913,21.7648493 4.81530435,22.1391781 4.81530435,22.5996986 C4.81530435,23.0602192 4.44973913,23.4345479 4,23.4345479 Z" id="Fill-2"></path>
                        <polygon id="Fill-3" points="3.59234783 13.8348493 4.40765217 13.8348493 4.40765217 13 3.59234783 13"></polygon>
                        <polygon id="Fill-4" points="3.59234783 12.1651507 4.40765217 12.1651507 4.40765217 11.3303014 3.59234783 11.3303014"></polygon>
                        <polygon id="Fill-5" points="3.59234783 15.5045479 4.40765217 15.5045479 4.40765217 14.6696986 3.59234783 14.6696986"></polygon>
                    </g>
                </g>
            </g>
        </g>
    </g>
</svg>