<?xml version="1.0" encoding="UTF-8"?>
<svg width="24px" height="24px" viewBox="0 0 24 24" version="1.1" xmlns="http://www.w3.org/2000/svg" xmlns:xlink="http://www.w3.org/1999/xlink">
    <!-- Generator: Sketch 48.1 (47250) - http://www.bohemiancoding.com/sketch -->
    <title>Dashboard</title>
    <desc>Created with Sketch.</desc>
    <defs></defs>
    <g id="Page-1" stroke="none" stroke-width="1" fill="none" fill-rule="evenodd">
        <g id="Dashboard" fill="#3F7E8D">
            <path d="M11.88,0.24 C5.325,0.24 0,5.565 0,12.12 C0,18.675 5.325,24 11.88,24 C18.435,24 23.76,18.675 23.76,12.12 C23.76,5.565 18.435,0.24 11.88,0.24 Z M11.323,1.337 L11.34,1.337 L11.34,2.94 C11.34,3.23823376 11.5817662,3.48 11.88,3.48 C12.1782338,3.48 12.42,3.23823376 12.42,2.94 L12.42,1.337 C14.9090609,1.45424199 17.2801432,2.43229578 19.128,4.104 L17.988,5.244 C17.477,5.755 18.245,6.524 18.757,6.011 L19.887,4.872 C21.5619052,6.71862933 22.5431855,9.08982091 22.663,11.58 L21.06,11.58 C20.7617662,11.58 20.52,11.8217662 20.52,12.12 C20.52,12.4182338 20.7617662,12.66 21.06,12.66 L22.663,12.66 C22.5066621,15.8661238 20.9291497,18.8356452 18.36,20.76 L18.36,18.33 C18.36,18.0317662 18.1182338,17.79 17.82,17.79 L5.94,17.79 C5.64176624,17.79 5.4,18.0317662 5.4,18.33 L5.4,20.76 C2.83085031,18.8356452 1.25333793,15.8661238 1.097,12.66 L2.7,12.66 C2.99823376,12.66 3.24,12.4182338 3.24,12.12 C3.24,11.8217662 2.99823376,11.58 2.7,11.58 L1.097,11.58 C1.21681453,9.08982091 2.19809477,6.71862933 3.873,4.872 L5.003,6.012 C5.515,6.523 6.283,5.755 5.771,5.243 L4.632,4.104 C6.47545296,2.43599136 8.83988077,1.45820452 11.323,1.337 Z M11.796,4.56 C11.5790437,4.59548149 11.4051313,4.75872191 11.356,4.973 L10.024,10.584 C9.3757029,11.3597953 9.27800082,12.4568501 9.779,13.335 C10.1879674,14.0351001 10.9196464,14.4846136 11.729,14.533 L11.737,14.533 C11.773,14.543 11.81,14.549 11.847,14.55 L11.888,14.55 L11.931,14.542 C11.956,14.542 11.981,14.535 12.007,14.533 C12.8251522,14.4928523 13.5676851,14.0422169 13.981,13.335 C14.481531,12.4570941 14.383843,11.3605962 13.736,10.585 L12.403,4.973 C12.3397641,4.69780686 12.0751929,4.51779386 11.796,4.56 Z M11.88,7.412 L12.715,10.922 C12.7358967,11.0171364 12.7826066,11.1046742 12.85,11.175 C13.258,11.595 13.364,12.255 13.053,12.795 C12.8069632,13.2057559 12.3667175,13.4608339 11.888,13.47 L11.872,13.47 C11.3932825,13.4608339 10.9530368,13.2057559 10.707,12.795 C10.397,12.255 10.502,11.595 10.91,11.175 C10.9773934,11.1046742 11.0241033,11.0171364 11.045,10.922 L11.88,7.412 Z M6.48,18.87 L17.28,18.87 L17.28,21.469 C15.6394469,22.4203915 13.7764596,22.9209831 11.88,22.92 C9.91,22.92 8.069,22.387 6.48,21.469 L6.48,18.87 Z" id="Shape"></path>
        </g>
    </g>
</svg>