<?xml version="1.0" encoding="UTF-8"?>
<svg width="62px" height="56px" viewBox="0 0 62 56" version="1.1" xmlns="http://www.w3.org/2000/svg" xmlns:xlink="http://www.w3.org/1999/xlink">
    <!-- Generator: Sketch 46.2 (44496) - http://www.bohemiancoding.com/sketch -->
    <title>Group</title>
    <desc>Created with Sketch.</desc>
    <defs></defs>
    <g id="Page-1" stroke="none" stroke-width="1" fill="none" fill-rule="evenodd">
        <g id="icons" transform="translate(-120.000000, -242.000000)" stroke="#231F20" stroke-width="3.5">
            <g id="Group" transform="translate(122.000000, 243.000000)">
                <g transform="translate(0.000000, 5.000000)">
                    <g id="_32237776" transform="translate(0.000000, 14.000000)">
                        <path d="M58,0.312 L58,30.248 C58,31.983 56.581,33.404 54.845,33.404 L3.157,33.404 C1.421,33.404 0.001,31.983 0.001,30.248 L0.001,0.312" id="Shape"></path>
                    </g>
                    <g id="_32237800">
                        <path d="M54.845,0.188 C56.581,0.188 58,1.611 58,3.345 L58,14.263 L0,14.263 L0,3.345 C0,1.611 1.42,0.188 3.156,0.188 L3.156,0.188 L54.845,0.188 L54.845,0.188 Z" id="Shape"></path>
                    </g>
                </g>
                <path d="M40,10.391 L40,-0.402" id="Shape"></path>
                <path d="M17,10.391 L17,-0.402" id="Shape"></path>
            </g>
        </g>
    </g>
</svg>