<?xml version="1.0" encoding="UTF-8"?>
<svg width="23px" height="24px" viewBox="0 0 23 24" version="1.1" xmlns="http://www.w3.org/2000/svg" xmlns:xlink="http://www.w3.org/1999/xlink">
    <!-- Generator: Sketch 48.1 (47250) - http://www.bohemiancoding.com/sketch -->
    <title>Page 1</title>
    <desc>Created with Sketch.</desc>
    <defs></defs>
    <g id="05a_Reporting_Bloomington" stroke="none" stroke-width="1" fill="none" fill-rule="evenodd" transform="translate(-155.000000, -472.000000)">
        <g id="report-cards" transform="translate(126.000000, 175.000000)" fill="#3F7E8D">
            <g id="discount" transform="translate(0.000000, 260.000000)">
                <g id="Group-5" transform="translate(20.000000, 30.000000)">
                    <path d="M31.0906222,15.862 C30.9329555,15.3803333 30.5839555,14.9856667 30.1256222,14.7723333 L27.9212888,13.7476667 L27.6256222,11.3346667 C27.5646222,10.832 27.2962888,10.3776667 26.8876222,10.081 C26.4772888,9.78266667 25.9629555,9.66933333 25.4656222,9.767 L23.0906222,10.2306667 L21.4252888,8.45066667 C21.0802888,8.081 20.5972888,7.87 20.0919555,7.87 C19.5852888,7.87 19.1022888,8.081 18.7572888,8.45066667 L17.0906222,10.2306667 L14.7052888,9.76566667 C14.2079555,9.668 13.6922888,9.78266667 13.2832888,10.0796667 C12.8732888,10.3776667 12.6062888,10.8333333 12.5449555,11.336 L12.2496222,13.7486667 L10.0449555,14.7736667 C9.5879555,14.9883333 9.24162216,15.3843333 9.08662216,15.8646667 C8.9329555,16.345 8.98528883,16.8686667 9.23128883,17.31 L10.4109555,19.435 L9.23128883,21.56 C8.98528883,22.0026667 8.93428883,22.5273333 9.0919555,23.008 C9.24828883,23.4896667 9.59728883,23.8843333 10.0566222,24.0976667 L12.2612888,25.1223333 L12.5566222,27.5353333 C12.6179555,28.038 12.8862888,28.4923333 13.2949555,28.789 C13.7052888,29.0873333 14.2196222,29.2006667 14.7169555,29.103 L17.0906222,28.6393333 L18.7482888,30.4193333 C19.0932888,30.789 19.5762888,31 20.0816222,31 C20.5879555,31 21.0709555,30.789 21.4162888,30.4193333 L23.0906222,28.6393333 L25.4759555,29.1043333 C25.9732888,29.202 26.4889555,29.0873333 26.8979555,28.7903333 C27.3079555,28.4923333 27.5749555,28.0366667 27.6362888,27.534 L27.9316222,25.1213333 L30.1362888,24.0963333 C30.5946222,23.883 30.9446222,23.4883333 31.1009555,23.008 C31.2572888,22.526 31.2066222,22.0013333 30.9616222,21.5586667 L29.7702888,19.435 L30.9499555,17.31 C31.1946222,16.8673333 31.2456222,16.344 31.0906222,15.862 Z M29.8576222,16.7046667 L28.5099555,19.1316667 C28.4042888,19.3203333 28.4042888,19.551 28.5099555,19.7396667 L29.8576222,22.1666667 C30.0202888,22.4546667 29.9056222,22.8203333 29.6076222,22.9636667 L27.0906222,24.138 C26.8926222,24.2306667 26.7559555,24.4206667 26.7326222,24.638 L26.3952888,27.388 C26.3589555,27.7213333 26.0449555,27.9533333 25.7156222,27.888 L22.9812888,27.3476667 C22.7689555,27.3073333 22.5516222,27.3776667 22.4032888,27.5353333 L20.5112888,29.5676667 C20.2806222,29.8033333 19.9019555,29.8033333 19.6712888,29.5676667 L17.7779555,27.5353333 C17.6596222,27.4076667 17.4942888,27.336 17.3209555,27.3346667 C17.2806222,27.331 17.2402888,27.331 17.2012888,27.3346667 L14.4759555,27.8803333 C14.1466222,27.9453333 13.8329555,27.7136667 13.7962888,27.3803333 L13.4589555,24.6303333 C13.4356222,24.413 13.3002888,24.2226667 13.1009555,24.1303333 L10.5906222,22.965 C10.2922888,22.8216667 10.1779555,22.4556667 10.3406222,22.168 L11.6882888,19.741 C11.7936222,19.5523333 11.7936222,19.3216667 11.6882888,19.133 L10.3406222,16.7056667 C10.1779555,16.418 10.2922888,16.0523333 10.5906222,15.909 L13.0906222,14.732 C13.2886222,14.6393333 13.4252888,14.4493333 13.4486222,14.232 L13.7859555,11.482 C13.8222888,11.1486667 14.1362888,10.9166667 14.4656222,10.982 L17.1936222,11.5143333 C17.4056222,11.5546667 17.6232888,11.4843333 17.7716222,11.327 L19.6636222,9.29433333 C19.8939555,9.05866667 20.2729555,9.05866667 20.5032888,9.29433333 L22.3952888,11.327 C22.5422888,11.4843333 22.7612888,11.5546667 22.9732888,11.5143333 L25.7012888,10.982 C26.0306222,10.9166667 26.3446222,11.1486667 26.3809555,11.482 L26.7182888,14.232 C26.7416222,14.4493333 26.8769555,14.6393333 27.0762888,14.732 L29.5906222,15.905 C29.8889555,16.0483333 30.0032888,16.4143333 29.8406222,16.702 L29.8576222,16.7046667 Z M23.2079555,16.392 L17.9682888,23.237 C17.4682888,23.9036667 16.4682888,23.1536667 16.9682888,22.487 L22.2129555,15.633 C22.7129555,14.9663333 23.7129555,15.7163333 23.2129555,16.383 L23.2079555,16.392 Z M22.7859555,19.513 C21.6936222,19.521 20.8092888,20.405 20.8016222,21.4976667 L20.8016222,21.9103333 C20.8016222,23.0066667 21.6909555,23.8946667 22.7859555,23.8946667 C23.8822888,23.8946667 24.7716222,23.0066667 24.7716222,21.9103333 L24.7716222,21.4976667 C24.7639555,20.4036667 23.8782888,19.5196667 22.7859555,19.513 Z M23.5202888,21.913 C23.5202888,22.8933333 22.0502888,22.8933333 22.0502888,21.913 L22.0502888,21.4976667 C22.0502888,20.517 23.5202888,20.517 23.5202888,21.4976667 L23.5202888,21.913 Z M19.3809555,17.3723333 L19.3809555,16.9596667 C19.3809555,15.8633333 18.4916222,14.9753333 17.3966222,14.9753333 C16.3002888,14.9753333 15.4109555,15.8633333 15.4109555,16.9596667 L15.4109555,17.3723333 C15.4109555,18.469 16.3002888,19.357 17.3952888,19.357 C18.4916222,19.357 19.3809555,18.469 19.3809555,17.3723333 Z M16.6609555,17.3723333 L16.6609555,16.9596667 C16.6609555,15.9793333 18.1309555,15.9793333 18.1309555,16.9596667 L18.1309555,17.3723333 C18.1309555,18.353 16.6609555,18.353 16.6609555,17.3723333 Z" id="Page-1"></path>
                </g>
            </g>
        </g>
    </g>
</svg>