<?xml version="1.0" encoding="UTF-8"?>
<svg width="16px" height="22px" viewBox="0 0 16 22" version="1.1" xmlns="http://www.w3.org/2000/svg" xmlns:xlink="http://www.w3.org/1999/xlink">
    <!-- Generator: Sketch 48.1 (47250) - http://www.bohemiancoding.com/sketch -->
    <title>Page 1</title>
    <desc>Created with Sketch.</desc>
    <defs></defs>
    <g id="05a_Reporting_Bloomington" stroke="none" stroke-width="1" fill="none" fill-rule="evenodd" transform="translate(-158.000000, -344.000000)">
        <g id="report-cards" transform="translate(126.000000, 175.000000)" fill="#3F7E8D">
            <g id="dispense-v-purch" transform="translate(0.000000, 130.000000)">
                <g id="Group-5" transform="translate(20.000000, 30.000000)">
                    <path d="M22.1593433,17.5437733 C21.9211566,17.5437733 21.6838499,17.5208933 21.4500633,17.4751333 C20.4671033,17.2744933 20.1670233,18.7502533 21.1499833,18.94972 C21.4788099,19.0151333 21.8123299,19.04828 22.1470233,19.0494533 C24.1771833,19.0562 26.0128633,17.83828 26.7966499,15.96476 C27.5804366,14.0915333 27.1586233,11.9302533 25.7286233,10.4888133 C24.2986233,9.04737333 22.1411566,8.60854667 20.2608899,9.37737333 C18.3817966,10.1462 17.1497966,11.97044 17.1395299,14.0020667 C17.1395299,14.0020667 17.1395299,18.81684 17.1395299,28.4463867 L13.2977433,24.5952133 C12.5893433,23.8859333 11.5251299,24.9492667 12.2332366,25.6585467 L17.3583566,30.78044 C17.3938499,30.81476 17.4316899,30.8458533 17.4730499,30.8734267 L17.5270233,30.9030533 L17.6024099,30.9420667 L17.6780899,30.96612 L17.7446766,30.9846 C17.8432366,31.0051333 17.9461966,31.0051333 18.0447566,30.9846 L18.1113433,30.96612 L18.1870233,30.9420667 C18.2119566,30.9306267 18.2371833,30.9180133 18.2624099,30.9030533 L18.3163833,30.8734267 C18.3577433,30.8458533 18.3952899,30.81476 18.4310766,30.78044 L23.5471033,25.65532 C24.2563833,24.94604 23.1930499,23.8827067 22.4837699,24.5919867 L18.6384633,28.4372933 L18.6384633,14.0352133 C18.6349433,12.6122533 19.4885433,11.3265733 20.8026766,10.77892 C22.1171033,10.2312667 23.6307033,10.529 24.6391833,11.53396 C25.6473699,12.53892 25.9509699,14.0513467 25.4080099,15.3678267 C24.8659299,16.6834267 23.5825966,17.5426 22.1593433,17.5437733 Z" id="Page-1"></path>
                </g>
            </g>
        </g>
    </g>
</svg>