<?xml version="1.0" encoding="UTF-8"?>
<svg width="17px" height="20px" viewBox="0 0 17 20" version="1.1" xmlns="http://www.w3.org/2000/svg" xmlns:xlink="http://www.w3.org/1999/xlink">
    <!-- Generator: Sketch 48.1 (47250) - http://www.bohemiancoding.com/sketch -->
    <title>Fill 1</title>
    <desc>Created with Sketch.</desc>
    <defs></defs>
    <g id="08a_AllAdjustments-Bloomington" stroke="none" stroke-width="1" fill="none" fill-rule="evenodd" transform="translate(-551.000000, -253.000000)">
        <g id="card-1" transform="translate(520.000000, 214.000000)" fill="#3F7E8D">
            <g id="Group-5" transform="translate(20.000000, 30.000000)">
                <path d="M22.7692308,10.5405769 L22.7692308,14.0001562 L26.3885962,14.0001562 L22.7692308,10.5405769 Z M21.4615385,14.0001562 L21.4615385,10.2502734 L12.9615385,10.2502734 C12.6006154,10.2502734 12.3076923,10.5299522 12.3076923,10.8758789 L12.3076923,27.1244336 C12.3076923,27.4706728 12.6006154,27.7497266 12.9615385,27.7497266 L26.0384615,27.7497266 C26.3993846,27.7497266 26.6923077,27.4706728 26.6923077,27.1244336 L26.6923077,15.2510547 L22.7692308,15.2510547 L21.4615385,15.2510547 L21.4615385,14.0001562 Z M28,14.0020312 L28,14.0023437 L28,28.3750195 C28,28.7206337 27.7070769,29 27.3461538,29 L11.6538462,29 C11.2929231,29 11,28.7206337 11,28.3750195 L11,9.62591794 C11,9.27967876 11.2929231,9 11.6538462,9 L22.7692308,9 L22.7692308,9.00218743 L22.7692308,9.00187494 L27.9980385,14.0001562 L28,14.0001562 L28,14.0020312 Z" id="Fill-1"></path>
            </g>
        </g>
    </g>
</svg>