<?xml version="1.0" encoding="UTF-8"?>
<svg width="18px" height="23px" viewBox="0 0 18 23" version="1.1" xmlns="http://www.w3.org/2000/svg" xmlns:xlink="http://www.w3.org/1999/xlink">
    <!-- Generator: Sketch 48.1 (47250) - http://www.bohemiancoding.com/sketch -->
    <title>Page 1</title>
    <desc>Created with Sketch.</desc>
    <defs></defs>
    <g id="05a_Reporting_Bloomington" stroke="none" stroke-width="1" fill="none" fill-rule="evenodd" transform="translate(-588.000000, -343.000000)">
        <g id="report-cards" transform="translate(126.000000, 175.000000)" fill="#3F7E8D">
            <g id="inventory-turns" transform="translate(430.000000, 130.000000)">
                <g id="Group-5" transform="translate(20.000000, 30.000000)">
                    <path d="M20.84,8.12 C20.11824,8.12 19.45888,8.26629333 18.93888,8.54258667 C18.41888,8.81888 17.98,9.27648 17.98,9.88314667 L17.98,10.2 L16.16,10.2 C15.87296,10.2 15.64,10.43296 15.64,10.72 L15.64,11.76 L13.3,11.76 C12.5889867,11.76 12,12.3489867 12,13.06 L12,29.7 C12,30.4110133 12.5889867,31 13.3,31 L28.38,31 C29.0910133,31 29.68,30.4110133 29.68,29.7 L29.68,13.06 C29.68,12.3489867 29.0910133,11.76 28.38,11.76 L26.04,11.76 L26.04,10.72 C26.04,10.43296 25.80704,10.2 25.52,10.2 L23.7,10.2 L23.7,9.88314667 C23.7,9.27648 23.26112,8.81888 22.74112,8.54258667 C22.22112,8.26629333 21.56176,8.12 20.84,8.12 Z M20.84,9.16 C21.41408,9.16 21.9274933,9.28722667 22.2537067,9.46056 C22.5802667,9.63389333 22.66,9.80202667 22.66,9.88314667 L22.66,10.72 C22.66,11.00704 22.89296,11.24 23.18,11.24 L25,11.24 L25,13.32 L16.68,13.32 L16.68,11.24 L18.5,11.24 C18.78704,11.24 19.02,11.00704 19.02,10.72 L19.02,9.88314667 C19.02,9.80202667 19.0997333,9.63389333 19.4262933,9.46056 C19.7525067,9.28722667 20.26592,9.16 20.84,9.16 Z M13.3,12.8 L15.64,12.8 L15.64,13.84 C15.64,14.12704 15.87296,14.36 16.16,14.36 L25.52,14.36 C25.80704,14.36 26.04,14.12704 26.04,13.84 L26.04,12.8 L28.38,12.8 C28.53288,12.8 28.64,12.90712 28.64,13.06 L28.64,29.7 C28.64,29.85288 28.53288,29.96 28.38,29.96 L13.3,29.96 C13.14712,29.96 13.04,29.85288 13.04,29.7 L13.04,13.06 C13.04,12.90712 13.14712,12.8 13.3,12.8 Z M16.42,17.48 C15.98944,17.48 15.64,17.82944 15.64,18.26 C15.64,18.69056 15.98944,19.04 16.42,19.04 C16.85056,19.04 17.2,18.69056 17.2,18.26 C17.2,17.82944 16.85056,17.48 16.42,17.48 Z M19.49112,17.74 C19.20408,17.75352 18.9822133,17.9972267 18.9957333,18.2842667 C19.0092533,18.5713067 19.25296,18.79352 19.54,18.78 L25.52,18.78 C25.8098133,18.78416 26.0469333,18.5498133 26.0469333,18.26 C26.0469333,17.9701867 25.8098133,17.73584 25.52,17.74 L19.54,17.74 C19.5237067,17.7386133 19.5074133,17.7386133 19.49112,17.74 Z M16.42,20.86 C15.98944,20.86 15.64,21.20944 15.64,21.64 C15.64,22.07056 15.98944,22.42 16.42,22.42 C16.85056,22.42 17.2,22.07056 17.2,21.64 C17.2,21.20944 16.85056,20.86 16.42,20.86 Z M19.49112,21.12 C19.20408,21.13352 18.9822133,21.3772267 18.9957333,21.6642667 C19.0092533,21.9513067 19.25296,22.17352 19.54,22.16 L25.52,22.16 C25.8098133,22.16416 26.0469333,21.9298133 26.0469333,21.64 C26.0469333,21.3501867 25.8098133,21.11584 25.52,21.12 L19.54,21.12 C19.5237067,21.1186133 19.5074133,21.1186133 19.49112,21.12 Z M16.42,24.24 C15.98944,24.24 15.64,24.58944 15.64,25.02 C15.64,25.45056 15.98944,25.8 16.42,25.8 C16.85056,25.8 17.2,25.45056 17.2,25.02 C17.2,24.58944 16.85056,24.24 16.42,24.24 Z M19.49112,24.5 C19.20408,24.51352 18.9822133,24.7572267 18.9957333,25.0442667 C19.0092533,25.3313067 19.25296,25.55352 19.54,25.54 L25.52,25.54 C25.8098133,25.54416 26.0469333,25.3098133 26.0469333,25.02 C26.0469333,24.7301867 25.8098133,24.49584 25.52,24.5 L19.54,24.5 C19.5237067,24.4986133 19.5074133,24.4986133 19.49112,24.5 Z" id="Page-1"></path>
                </g>
            </g>
        </g>
    </g>
</svg>