<?xml version="1.0" encoding="UTF-8"?>
<svg width="899px" height="899px" viewBox="0 0 899 899" version="1.1" xmlns="http://www.w3.org/2000/svg" xmlns:xlink="http://www.w3.org/1999/xlink">
    <!-- Generator: Sketch 48.1 (47250) - http://www.bohemiancoding.com/sketch -->
    <title>Shape</title>
    <desc>Created with Sketch.</desc>
    <defs></defs>
    <g id="Page-1" stroke="none" stroke-width="1" fill="none" fill-rule="evenodd">
        <g id="Rejected" transform="translate(-1.000000, -1.000000)" fill="#F82F22" fill-rule="nonzero">
            <g id="Group" transform="translate(0.955700, 0.283500)">
                <path d="M42.2349,856.6524 L0.049,814.4665 L182.2352,632.2771 L364.42149,450.0876 L182.2329,267.8958 L0.0443,85.704 L41.9247,43.8376 L83.8051,1.9712 L265.3665,183.5294 C365.22528,283.3864 447.488959,365.0876 448.174699,365.0876 C448.860439,365.0876 531.406439,283.1041 631.610249,182.9021 L813.79899,0.7165 L855.98489,42.9024 L898.17078,85.0883 L715.98524,267.2771 C615.783189,367.4809 533.799699,450.0269 533.799699,450.7126 C533.799699,451.3983 615.644659,533.8058 715.6774,633.8403 L897.5551,815.7212 L855.6747,857.5876 L813.79431,899.454 L631.296999,716.9599 L448.799699,534.4658 L266.61024,716.6521 L84.4208,898.8383 L42.2349,856.6524 Z" id="Shape"></path>
            </g>
        </g>
    </g>
</svg>