<?xml version="1.0" encoding="UTF-8"?>
<svg width="23px" height="23px" viewBox="0 0 23 23" version="1.1" xmlns="http://www.w3.org/2000/svg" xmlns:xlink="http://www.w3.org/1999/xlink">
    <!-- Generator: Sketch 48.1 (47250) - http://www.bohemiancoding.com/sketch -->
    <title>Page 1</title>
    <desc>Created with Sketch.</desc>
    <defs></defs>
    <g id="05a_Reporting_Bloomington" stroke="none" stroke-width="1" fill="none" fill-rule="evenodd" transform="translate(-41.000000, -206.000000)">
        <g id="main-nav" fill="#3F7E8D">
            <g id="Group-4" transform="translate(0.000000, 179.000000)">
                <g id="Page-1" transform="translate(41.000000, 27.000000)">
                    <path d="M22.6984795,21.0062466 L21.7570548,20.0648219 C21.5491096,19.8578219 21.2129315,19.8578219 21.0062466,20.0648219 C20.9054247,20.1656438 20.8512329,20.2986027 20.8512329,20.4400685 C20.8512329,20.5815342 20.9063699,20.7157534 21.0062466,20.8153151 L21.040589,20.8499726 L2.55993151,20.8499726 C2.33339726,20.8499726 2.1500274,20.6666027 2.1500274,20.4400685 L2.14876712,1.96067123 L2.18342466,1.9950137 C2.38380822,2.19445205 2.73479452,2.19445205 2.93517808,1.99375342 C3.03631507,1.89293151 3.09050685,1.7599726 3.09050685,1.61850685 C3.09050685,1.47578082 3.03505479,1.34282192 2.93517808,1.24294521 L1.99375342,0.301520548 C1.78706849,0.0948356164 1.44994521,0.0948356164 1.24294521,0.301520548 L0.301520548,1.24294521 C0.0948356164,1.44994521 0.0948356164,1.78706849 0.301520548,1.99375342 C0.508205479,2.20043836 0.845643836,2.20043836 1.05232877,1.99375342 L1.08667123,1.95941096 L1.08667123,20.4400685 C1.08667123,21.2523151 1.74768493,21.9120685 2.55867123,21.9120685 L21.0393288,21.9120685 L21.0049863,21.946411 C20.9041644,22.0475479 20.8487123,22.1801918 20.8487123,22.3219726 C20.8487123,22.4634384 20.9041644,22.5976575 21.003726,22.6972192 C21.1045479,22.7980411 21.2375068,22.8534932 21.3789726,22.8534932 C21.5207534,22.8534932 21.6546575,22.7980411 21.7557945,22.6984795 L22.6959589,21.7570548 C22.7967808,21.6559178 22.8522329,21.5229589 22.8522329,21.3814932 C22.8534932,21.2400274 22.7980411,21.1058082 22.6984795,21.0062466 Z" id="Fill-1"></path>
                    <path d="M20.3427123,4.38008219 C19.6092329,4.22884932 18.9507397,4.63623288 18.7046712,5.25408219 L4.91065753,5.25408219 C4.61764384,5.25408219 4.37882192,5.49164384 4.37882192,5.78560274 C4.37882192,6.07861644 4.61638356,6.31743836 4.91065753,6.31743836 L18.703411,6.31743836 C18.915137,6.84643836 19.4309041,7.22326027 20.0364658,7.22326027 C20.9189726,7.22326027 21.6165342,6.42676712 21.4479726,5.51369863 C21.3458904,4.95508219 20.897863,4.49476712 20.3427123,4.38008219 Z M20.0364658,6.35052055 C19.7239178,6.35052055 19.4715479,6.09720548 19.4715479,5.78560274 C19.4715479,5.47305479 19.724863,5.22068493 20.0364658,5.22068493 C20.3477534,5.22068493 20.6013836,5.47431507 20.6013836,5.78560274 C20.6013836,6.09720548 20.3490137,6.35052055 20.0364658,6.35052055 Z" id="Fill-2"></path>
                    <path d="M15.5873836,8.18926027 C14.8539041,8.0380274 14.195411,8.44541096 13.9490274,9.06326027 L4.91065753,9.06452055 C4.61764384,9.06452055 4.37882192,9.30176712 4.37882192,9.5960411 C4.37882192,9.88905479 4.61638356,10.1278767 4.91065753,10.1278767 L13.9480822,10.1278767 C14.1594932,10.6568767 14.6752603,11.0336986 15.2808219,11.0336986 C16.1633288,11.0336986 16.8612055,10.2372055 16.6923288,9.32413699 C16.5902466,8.76394521 16.1422192,8.30489041 15.5873836,8.18926027 Z M15.2808219,10.1596986 C14.968274,10.1596986 14.7159041,9.90606849 14.7159041,9.59478082 C14.7159041,9.28223288 14.9695342,9.02986301 15.2808219,9.02986301 C15.5921096,9.02986301 15.8457397,9.28349315 15.8457397,9.59478082 C15.8457397,9.90732877 15.5933699,10.1596986 15.2808219,10.1596986 Z" id="Fill-3"></path>
                    <path d="M18.4400137,11.9996986 C17.7065342,11.8481507 17.0480411,12.2555342 16.8019726,12.8733836 L4.91065753,12.8733836 C4.61764384,12.8733836 4.37882192,13.1109452 4.37882192,13.4052192 C4.37882192,13.6982329 4.61638356,13.9367397 4.91065753,13.9367397 L16.8019726,13.9354795 C17.0136986,14.4647945 17.5294658,14.8413014 18.1350274,14.8413014 C19.0172192,14.8413014 19.7150959,14.0451233 19.5465342,13.1320548 C19.4431918,12.5743836 18.9951644,12.1140685 18.4400137,11.9996986 Z M18.1350274,13.970137 C17.8221644,13.970137 17.5701096,13.7165068 17.5701096,13.4052192 C17.5701096,13.0926712 17.8234247,12.8403014 18.1350274,12.8403014 C18.4475753,12.8403014 18.6999452,13.0939315 18.6999452,13.4052192 C18.6986849,13.7165068 18.4463151,13.970137 18.1350274,13.970137 Z" id="Fill-4"></path>
                    <path d="M12.2580548,15.810137 C11.5245753,15.658589 10.8660822,16.0659726 10.6200137,16.6838219 L4.91065753,16.6838219 C4.61764384,16.6838219 4.37882192,16.9213836 4.37882192,17.2156575 C4.37882192,17.5083562 4.61638356,17.7471781 4.91065753,17.7471781 L10.6187534,17.7471781 C10.8304795,18.2764932 11.3462466,18.653 11.9518082,18.653 C12.834,18.653 13.5318767,17.8568219 13.3633151,16.9434384 C13.2612329,16.3835616 12.8132055,15.9245068 12.2580548,15.810137 Z M11.9530685,17.7793151 C11.6402055,17.7793151 11.3881507,17.5256849 11.3881507,17.2143973 C11.3881507,16.9018493 11.6414658,16.6494795 11.9530685,16.6494795 C12.2643562,16.6494795 12.5176712,16.9027945 12.5176712,17.2143973 C12.516726,17.5269452 12.2643562,17.7793151 11.9530685,17.7793151 Z" id="Fill-5"></path>
                </g>
            </g>
        </g>
    </g>
</svg>