<?xml version="1.0" encoding="UTF-8"?>
<svg width="8px" height="13px" viewBox="0 0 8 13" version="1.1" xmlns="http://www.w3.org/2000/svg" xmlns:xlink="http://www.w3.org/1999/xlink">
    <!-- Generator: Sketch 48.1 (47250) - http://www.bohemiancoding.com/sketch -->
    <title>Group 11</title>
    <desc>Created with Sketch.</desc>
    <defs></defs>
    <g id="09a_AdjustmentAnalysis" stroke="none" stroke-width="1" fill="none" fill-rule="evenodd" transform="translate(-792.000000, -202.000000)">
        <g id="card-1" transform="translate(126.000000, 176.000000)">
            <g id="Group-15" transform="translate(0.000000, 2.000000)">
                <g id="Group">
                    <g id="Labels" transform="translate(40.000000, 21.000000)">
                        <g id="Group-12-Copy-4" transform="translate(552.000000, 0.000000)">
                            <g id="Group-11" transform="translate(74.000000, 3.000000)">
                                <path d="M4.18300654,0.243660131 C4.04343704,0.104090632 3.83442266,0.0169411765 3.62541176,0.0169411765 C3.41640087,0.0169411765 3.22440087,0.104087146 3.06781699,0.243660131 L0.400976035,2.98056645 C0.104819172,3.29443137 0.104819172,3.78258824 0.418677124,4.09575599 C0.732542048,4.39191285 1.22069891,4.39191285 1.53386667,4.0780549 L3.64245054,1.91718344 L5.82109978,4.09583268 C5.97769063,4.25242353 6.16968366,4.32255163 6.37869455,4.32255163 C6.58770545,4.32255163 6.77970545,4.25310675 6.93628932,4.09583268 C7.25015425,3.78196776 7.25015425,3.29381089 6.93628932,2.98064314 L4.18300654,0.243660131 Z" id="Fill-1" fill="#3F7E8D"></path>
                                <path d="M3.1372549,12.4266667 C3.2768244,12.5662362 3.48583878,12.6533856 3.69484967,12.6533856 C3.90386057,12.6533856 4.09586057,12.5662397 4.25244444,12.4266667 L6.93619172,9.69045752 C7.23234858,9.37659259 7.23234858,8.88843573 6.91849063,8.57526797 C6.60462571,8.27911111 6.11646885,8.27911111 5.80330109,8.59296906 L3.67781089,10.7709211 L1.51624227,8.5922719 C1.20237734,8.27840697 0.714220479,8.27840697 0.401052723,8.5922719 C0.0871877996,8.90613682 0.0871877996,9.39429368 0.401052723,9.70746144 L3.1372549,12.4266667 Z" id="Fill-2" fill-opacity="0.5" fill="#808FA3"></path>
                            </g>
                        </g>
                    </g>
                </g>
            </g>
        </g>
    </g>
</svg>