<?xml version="1.0" encoding="UTF-8"?>
<svg width="26px" height="19px" viewBox="0 0 26 19" version="1.1" xmlns="http://www.w3.org/2000/svg" xmlns:xlink="http://www.w3.org/1999/xlink">
    <!-- Generator: Sketch 48.1 (47250) - http://www.bohemiancoding.com/sketch -->
    <title>TopSpending</title>
    <desc>Created with Sketch.</desc>
    <defs></defs>
    <g id="Page-1" stroke="none" stroke-width="1" fill="none" fill-rule="evenodd">
        <g id="TopSpending" fill="#3F7E8D" fill-rule="nonzero">
            <path d="M0.541493333,7.45833333 C0.24232,7.45833333 0,7.69133333 0,7.97933333 L0,12.146 C0,12.4336667 0.24232,12.6666667 0.541493333,12.6666667 L1.86749333,12.6653333 C2.60797333,14.0766667 3.84037333,15.3033333 5.41666667,16.2123333 L5.41666667,18.396 C5.41666667,18.6836667 5.65898667,18.9166667 5.95850667,18.9166667 L9.20816,18.9166667 C9.50768,18.9166667 9.75,18.6836667 9.75,18.396 L9.75138667,17.7083333 C10.4596267,17.819 11.1827733,17.875 11.9166667,17.875 C12.65056,17.875 13.37648,17.819 14.0833333,17.7083333 L14.0833333,18.396 C14.0833333,18.6836667 14.3256533,18.9166667 14.6251733,18.9166667 L17.8748267,18.9166667 C18.1743467,18.9166667 18.4166667,18.6836667 18.4166667,18.396 L18.4222133,16.2096667 C21.11408,14.655 22.75,12.2123333 22.75,9.54166667 C22.75,4.909 17.8748267,1.20833333 11.9166667,1.20833333 C10.51648,1.20833333 9.15130667,1.41266667 7.87973333,1.80466667 L5.15389333,0.241 C4.79232,0.0326666667 4.33333333,0.282666667 4.33333333,0.687333333 L4.33056,3.58733333 C2.9276,4.646 1.91741333,5.97933333 1.42445333,7.457 L0.541493333,7.45833333 Z M2.35490667,8.10933333 C2.74768,6.64066667 3.74434667,5.29833333 5.19722667,4.263 C5.33554667,4.164 5.41666667,4.009 5.41666667,3.84366667 L5.41944,1.60933333 L7.52648,2.82433333 C7.66306667,2.90366667 7.82981333,2.92066667 7.98130667,2.86966667 C9.20954667,2.46366667 10.5421333,2.25 11.9166667,2.25 C17.32536,2.25 21.6666667,5.54566667 21.6666667,9.54166667 C21.6666667,11.901 20.1472267,14.0886667 17.6096267,15.4583333 C17.4390667,15.5506667 17.3333333,15.724 17.3333333,15.9126667 L17.3333333,17.875 L15.1666667,17.875 L15.1666667,17.0806667 C15.1666667,16.7486667 14.8484267,16.5026667 14.51112,16.5716667 C13.67288,16.7446667 12.8037867,16.8333333 11.9166667,16.8333333 C11.0295467,16.8333333 10.1604533,16.7446667 9.32221333,16.5716667 C8.98490667,16.5026667 8.66666667,16.7486667 8.66666667,17.0806667 L8.66666667,17.875 L6.5,17.875 L6.5,15.9126667 C6.5,15.724 6.39426667,15.5506667 6.22370667,15.4583333 C4.59472,14.5793333 3.36232,13.345 2.70573333,11.9336667 C2.61768,11.746 2.42389333,11.625 2.21,11.625 L1.08333333,11.625 L1.08333333,8.5 L1.83074667,8.5 C2.07861333,8.5 2.29389333,8.33866667 2.35490667,8.10933333 Z" id="Fill-1"></path>
            <path d="M23.8333333,11.4193333 C25.0303733,11.4193333 26,10.487 26,9.336 C26,8.74733333 25.74416,8.19666667 25.30112,7.80466667 C25.0820267,7.60933333 24.7391733,7.62233333 24.5360267,7.83466667 C24.33288,8.04566667 24.3477867,8.375 24.5672267,8.57033333 C24.78944,8.767 24.9166667,9.04166667 24.9166667,9.336 C24.9166667,9.91133333 24.4320267,10.3776667 23.8333333,10.3776667 C23.23464,10.3776667 22.75,9.91133333 22.75,9.336 C22.75,9.04833333 22.50768,8.815 22.20816,8.815 C21.9089867,8.815 21.6666667,9.04833333 21.6666667,9.336 C21.6666667,10.487 22.6362933,11.4193333 23.8333333,11.4193333 Z" id="Fill-2"></path>
            <path d="M6.5,7.45833333 C6.5,8.84766667 4.33333333,8.84766667 4.33333333,7.45833333 C4.33333333,6.069 6.5,6.069 6.5,7.45833333" id="Fill-3"></path>
            <path d="M13.00416,12.785 C13.56472,12.655 14.0656533,12.349 14.3298133,11.81 C14.8713067,10.7096667 14.32704,9.93366667 13.1691733,9.353 C13.0027733,9.26966667 13.0526933,9.29166667 12.5801867,9.082 C12.1426933,8.888 12.1808267,8.905 12.0373067,8.83333333 C11.3342667,8.47933333 11.13944,8.20066667 11.3626933,7.74733333 C11.6348267,7.19266667 12.8849067,7.22533333 13.3237867,7.52466667 L13.7650933,7.82566667 L14.3922133,6.97666667 L13.95056,6.67433333 C13.7013067,6.50533333 13.36816,6.37766667 13.00416,6.30866667 L13.00416,5.375 L11.9208267,5.375 L11.9208267,6.28633333 C11.2760267,6.384 10.6804533,6.69666667 10.38232,7.302 C9.84221333,8.39966667 10.3837067,9.177 11.53464,9.75666667 C11.7027733,9.84 11.6622133,9.82166667 12.1264,10.0273333 C12.5722133,10.2253333 12.5261067,10.2043333 12.66824,10.276 C13.3778667,10.6316667 13.57408,10.9113333 13.3508267,11.3646667 C13.0773067,11.9206667 11.8272267,11.8866667 11.3886933,11.5873333 L10.94704,11.2863333 L10.3202667,12.1366667 L10.76296,12.4373333 C11.05936,12.6406667 11.4739733,12.7826667 11.9208267,12.836 L11.9208267,13.7083333 L13.00416,13.7083333 L13.00416,12.785 Z" id="Fill-4"></path>
        </g>
    </g>
</svg>