<?xml version="1.0" encoding="UTF-8"?>
<svg width="24px" height="23px" viewBox="0 0 24 23" version="1.1" xmlns="http://www.w3.org/2000/svg" xmlns:xlink="http://www.w3.org/1999/xlink">
    <!-- Generator: Sketch 48.1 (47250) - http://www.bohemiancoding.com/sketch -->
    <title>Page 1</title>
    <desc>Created with Sketch.</desc>
    <defs></defs>
    <g id="05a_Reporting_Bloomington" stroke="none" stroke-width="1" fill="none" fill-rule="evenodd" transform="translate(-584.000000, -213.000000)">
        <g id="report-cards" transform="translate(126.000000, 175.000000)" fill="#3F7E8D">
            <g id="top-spending" transform="translate(430.000000, 0.000000)">
                <g id="Group-5" transform="translate(20.000000, 30.000000)">
                    <g id="Page-1" transform="translate(8.000000, 8.000000)">
                        <path d="M20.49984,22.7709452 L3.50016,22.7709452 C1.56992,22.7709452 0,21.2252192 0,19.3250411 L0,9.47915068 C0,7.5789726 1.56992,6.03293151 3.50016,6.03293151 L20.49984,6.03293151 C22.43008,6.03293151 24,7.5789726 24,9.47915068 L24,19.3250411 C24,21.2252192 22.43008,22.7709452 20.49984,22.7709452 Z M3.50016,7.01752055 C2.12128,7.01752055 1,8.12278082 1,9.47915068 L1,19.3250411 C1,20.681411 2.12128,21.7863562 3.50016,21.7863562 L20.49984,21.7863562 C21.87872,21.7863562 23,20.681411 23,19.3250411 L23,9.47915068 C23,8.12278082 21.87872,7.01752055 20.49984,7.01752055 L3.50016,7.01752055 Z" id="Fill-1"></path>
                        <path d="M19.50016,15.8788219 C18.67264,15.8788219 18,15.216863 18,14.4020959 C18,13.5873288 18.67264,12.9250548 19.50016,12.9250548 C20.32736,12.9250548 21,13.5873288 21,14.4020959 C21,15.216863 20.32736,15.8788219 19.50016,15.8788219 Z M19.50016,13.9096438 C19.22496,13.9096438 19,14.1301918 19,14.4020959 C19,14.674 19.22496,14.8942329 19.50016,14.8942329 C19.77504,14.8942329 20,14.674 20,14.4020959 C20,14.1301918 19.77504,13.9096438 19.50016,13.9096438 Z" id="Fill-2"></path>
                        <path d="M23.50016,17.848 L19.50016,17.848 C17.56992,17.848 16,16.302274 16,14.4020959 C16,12.5019178 17.56992,10.9558767 19.50016,10.9558767 L23.50016,10.9558767 C23.77632,10.9558767 24,11.1764247 24,11.4483288 L24,17.355863 C24,17.6265068 23.77632,17.848 23.50016,17.848 Z M19.50016,11.9404658 C18.12128,11.9404658 17,13.045726 17,14.4020959 C17,15.7584658 18.12128,16.863411 19.50016,16.863411 L23,16.863411 L23,11.9404658 L19.50016,11.9404658 Z" id="Fill-3"></path>
                        <path d="M20,7.01752055 C19.8176,7.01752055 19.64128,6.9179589 19.55264,6.74561644 L17.43488,2.57726027 C17.12992,1.97642466 16.60384,1.53343836 15.9536,1.33179452 C15.30624,1.12857534 14.61504,1.19253425 14.01504,1.51138356 L3.7376,6.95860274 C3.49504,7.08652055 3.19136,6.9979863 3.05984,6.75790411 C2.92864,6.51908219 3.02016,6.22008219 3.2624,6.09216438 L13.53984,0.642424658 C14.3824,0.196917808 15.34624,0.108383562 16.25632,0.391315068 C17.1664,0.674561644 17.90368,1.29461644 18.32992,2.13521918 L20.44736,6.30389041 C20.56992,6.54743836 20.47008,6.8429726 20.22368,6.96458904 C20.15136,7.00050685 20.07488,7.01752055 20,7.01752055 Z" id="Fill-4"></path>
                        <path d="M10.5712,7.01752055 C10.3936,7.01752055 10.22112,6.92426027 10.1312,6.75916438 C10,6.51908219 10.0912,6.22008219 10.33376,6.09216438 L17.76256,2.15380822 C18.00512,2.02589041 18.3088,2.11442466 18.44,2.35450685 C18.5712,2.5930137 18.48,2.89232877 18.23744,3.02150685 L10.80864,6.95986301 C10.73248,6.9979863 10.6512,7.01752055 10.5712,7.01752055 Z" id="Fill-5"></path>
                        <path d="M0.49984,9.97128767 C0.22368,9.97128767 0,9.75105479 0,9.47915068 L0,8.49456164 C0,5.50865753 2.46752,3.07916438 5.50016,3.07916438 L9,3.07916438 C9.27616,3.07916438 9.50016,3.29971233 9.50016,3.57161644 C9.50016,3.84352055 9.27616,4.06375342 9,4.06375342 L5.50016,4.06375342 C3.01888,4.06375342 1,6.05152055 1,8.49456164 L1,9.47915068 C1,9.74979452 0.77632,9.97128767 0.49984,9.97128767 Z" id="Fill-6"></path>
                        <path d="M23.50016,9.97128767 C23.22368,9.97128767 23,9.75105479 23,9.47915068 L23,8.49456164 C23,6.05152055 20.98112,4.06375342 18.49984,4.06375342 C18.22368,4.06375342 18,3.84352055 18,3.57161644 C18,3.29971233 18.22368,3.07916438 18.49984,3.07916438 C21.53248,3.07916438 24,5.50865753 24,8.49456164 L24,9.47915068 C24,9.74979452 23.77632,9.97128767 23.50016,9.97128767 Z" id="Fill-7"></path>
                    </g>
                </g>
            </g>
        </g>
    </g>
</svg>