<?xml version="1.0" encoding="UTF-8"?>
<svg width="22px" height="20px" viewBox="0 0 22 20" version="1.1" xmlns="http://www.w3.org/2000/svg" xmlns:xlink="http://www.w3.org/1999/xlink">
    <!-- Generator: Sketch 48.1 (47250) - http://www.bohemiancoding.com/sketch -->
    <title>Page 1</title>
    <desc>Created with Sketch.</desc>
    <defs></defs>
    <g id="05a_Reporting_Bloomington" stroke="none" stroke-width="1" fill="none" fill-rule="evenodd" transform="translate(-1016.000000, -215.000000)">
        <g id="report-cards" transform="translate(126.000000, 175.000000)" fill="#3F7E8D">
            <g id="top-volume" transform="translate(860.000000, 0.000000)">
                <g id="Group-7" transform="translate(20.000000, 30.000000)">
                    <g id="Page-1" transform="translate(10.000000, 10.000000)">
                        <path d="M5.36712,0.195774648 C2.40621333,0.195774648 0.0859466667,1.38422535 0.0859466667,2.89830986 L0.0859466667,17.0971831 C0.0859466667,18.6157746 2.40621333,19.7997183 5.36712,19.7997183 C8.32802667,19.7997183 10.6482933,18.6112676 10.6482933,17.0971831 L10.6482933,2.89830986 C10.64712,1.38422535 8.32802667,0.195774648 5.36712,0.195774648 Z M9.94341333,17.1016901 C9.94341333,18.08 8.10450667,19.131831 5.36712,19.131831 C2.62973333,19.131831 0.790533333,18.0788732 0.790533333,17.1016901 L0.790533333,16.4371831 C1.69341333,17.2459155 3.38594667,17.7783099 5.36712,17.7783099 C7.34829333,17.7783099 9.04053333,17.2459155 9.94341333,16.4371831 L9.94341333,17.1016901 Z M9.94341333,15.0715493 C9.94341333,16.0498592 8.10450667,17.1016901 5.36712,17.1016901 C2.62973333,17.1016901 0.790533333,16.0498592 0.790533333,15.0715493 L0.790533333,14.4070423 C1.69341333,15.2157746 3.38594667,15.748169 5.36712,15.748169 C7.34829333,15.748169 9.04053333,15.2157746 9.94341333,14.4070423 L9.94341333,15.0715493 Z M9.94341333,13.0414085 C9.94341333,14.0197183 8.10450667,15.0715493 5.36712,15.0715493 C2.62973333,15.0715493 0.790533333,14.0228169 0.790533333,13.0414085 L0.790533333,12.3769014 C1.69341333,13.1856338 3.38594667,13.7180282 5.36712,13.7180282 C7.34829333,13.7180282 9.04053333,13.1856338 9.94341333,12.3769014 L9.94341333,13.0414085 Z M9.94341333,11.0146479 C9.94341333,11.9926761 8.10450667,13.0447887 5.36712,13.0447887 C2.62973333,13.0447887 0.790533333,11.9926761 0.790533333,11.0146479 L0.790533333,10.3498592 C1.69341333,11.155493 3.38594667,11.6923944 5.36712,11.6923944 C7.34829333,11.6923944 9.04053333,11.1597183 9.94341333,10.3509859 L9.94341333,11.0146479 Z M9.94341333,8.98535211 C9.94341333,9.96366197 8.10450667,11.015493 5.36712,11.015493 C2.62973333,11.015493 0.790533333,9.96704225 0.790533333,8.98535211 L0.790533333,8.32084507 C1.69341333,9.12957746 3.38594667,9.66225352 5.36712,9.66225352 C7.34829333,9.66225352 9.04053333,9.12957746 9.94341333,8.32084507 L9.94341333,8.98535211 Z M9.94341333,6.95859155 C9.94341333,7.93690141 8.10450667,8.98873239 5.36712,8.98873239 C2.62973333,8.98873239 0.790533333,7.93690141 0.790533333,6.95859155 L0.790533333,6.29408451 C1.69341333,7.1028169 3.38594667,7.63521127 5.36712,7.63521127 C7.34829333,7.63521127 9.04053333,7.1028169 9.94341333,6.29408451 L9.94341333,6.95859155 Z M9.94341333,4.9284507 C9.94341333,5.90676056 8.10450667,6.95859155 5.36712,6.95859155 C2.62973333,6.95859155 0.790533333,5.90676056 0.790533333,4.9284507 L0.790533333,4.26507042 C1.69341333,5.07380282 3.38594667,5.60619718 5.36712,5.60619718 C7.34829333,5.60619718 9.04053333,5.07380282 9.94341333,4.26507042 L9.94341333,4.9284507 Z M5.36712,4.9284507 C2.62973333,4.9284507 0.790533333,3.88084507 0.790533333,2.89830986 C0.790533333,1.92 2.62973333,0.868169014 5.36712,0.868169014 C8.10450667,0.868169014 9.94341333,1.91577465 9.94341333,2.89830986 C9.94341333,3.88084507 8.10333333,4.9284507 5.36712,4.9284507 Z" id="Fill-1"></path>
                        <path d="M16.63288,8.30760563 C13.6719733,8.30760563 11.3517067,9.49605634 11.3517067,11.0101408 L11.3517067,17.0960563 C11.3517067,18.6146479 13.6719733,19.7985915 16.63288,19.7985915 C19.5937867,19.7985915 21.9140533,18.6157746 21.9140533,17.1016901 L21.9140533,11.0146479 C21.9140533,9.49605634 19.5937867,8.30760563 16.63288,8.30760563 Z M21.2094667,17.1016901 C21.2094667,18.08 19.3702667,19.131831 16.63288,19.131831 C13.8954933,19.131831 12.0565867,18.0842254 12.0565867,17.1016901 L12.0565867,16.4371831 C12.9594667,17.2459155 14.6517067,17.7783099 16.63288,17.7783099 C18.6140533,17.7783099 20.3065867,17.2459155 21.2094667,16.4371831 L21.2094667,17.1016901 Z M21.2094667,15.0715493 C21.2094667,16.0498592 19.3702667,17.1016901 16.63288,17.1016901 C13.8954933,17.1016901 12.0565867,16.0540845 12.0565867,15.0715493 L12.0565867,14.4070423 C12.9594667,15.2157746 14.6517067,15.748169 16.63288,15.748169 C18.6140533,15.748169 20.3065867,15.2157746 21.2094667,14.4070423 L21.2094667,15.0715493 Z M21.2094667,13.0414085 C21.2094667,14.0197183 19.3702667,15.0715493 16.63288,15.0715493 C13.8954933,15.0715493 12.0565867,14.0239437 12.0565867,13.0414085 L12.0565867,12.3769014 C12.9594667,13.1856338 14.6517067,13.7180282 16.63288,13.7180282 C18.6140533,13.7180282 20.3065867,13.1856338 21.2094667,12.3769014 L21.2094667,13.0414085 Z M16.63288,13.0414085 C13.8954933,13.0414085 12.0565867,11.9938028 12.0565867,11.0112676 C12.0565867,10.0329577 13.8954933,8.98112676 16.63288,8.98112676 C19.3702667,8.98112676 21.2094667,10.0287324 21.2094667,11.0112676 C21.2094667,11.9926761 19.3702667,13.0414085 16.63288,13.0414085 Z" id="Fill-2"></path>
                    </g>
                </g>
            </g>
        </g>
    </g>
</svg>