<?xml version="1.0" encoding="UTF-8"?>
<svg width="16px" height="14px" viewBox="0 0 16 14" version="1.1" xmlns="http://www.w3.org/2000/svg" xmlns:xlink="http://www.w3.org/1999/xlink">
    <!-- Generator: Sketch 48.1 (47250) - http://www.bohemiancoding.com/sketch -->
    <title>upload icon</title>
    <desc>Created with Sketch.</desc>
    <defs></defs>
    <g id="03b_AddClaimFile" stroke="none" stroke-width="1" fill="none" fill-rule="evenodd" transform="translate(-625.000000, -312.000000)">
        <g id="Current-Accounts" transform="translate(308.000000, 110.000000)" fill="#3F7E8D" stroke="#FFFFFF" stroke-width="0.3">
            <g id="Group-8" transform="translate(123.000000, 84.000000)">
                <g id="drag-and-drop-area" transform="translate(2.000000, 82.000000)">
                    <path d="M204.079531,47.3109828 C203.760959,47.4129004 203.420592,47.2340639 203.319957,46.9135684 C203.219321,46.5930728 203.396876,46.2520655 203.716089,46.1507889 C205.276903,45.6578668 206.068527,44.3925504 206.068527,42.3894532 C206.068527,40.0882951 204.203883,38.2166011 201.911058,38.2166011 C199.918217,38.2166011 198.202284,39.6421653 197.829868,41.606162 L197.706157,42.259332 L197.069012,42.0772905 C196.864535,42.0189603 196.658136,41.9894747 196.454942,41.9894747 C195.217829,41.9894747 194.211473,42.9996767 194.211473,44.2406355 C194.211473,45.4822352 195.217829,46.4924372 196.454942,46.4924372 L196.578653,46.4834633 C196.917097,46.4706435 197.198492,46.723194 197.215798,47.0584323 C197.233746,47.3943117 196.97735,47.6801937 196.642752,47.6981415 L196.60237,47.7013464 C196.553655,47.7051924 196.504939,47.7083973 196.454942,47.7083973 C194.549916,47.7083973 193,46.1527119 193,44.2406355 C193,42.328559 194.549916,40.7728736 196.454942,40.7728736 C196.565192,40.7728736 196.675443,40.7786425 196.785693,40.7895394 C197.473477,38.5614543 199.541314,37 201.911058,37 C204.871796,37 207.28,39.4178184 207.28,42.3894532 C207.28,44.9482896 206.173649,46.650121 204.079531,47.3109828 L204.079531,47.3109828 Z M199.7522,42.9176298 C199.754123,42.9157069 199.754764,42.9125019 199.756687,42.9105789 C199.875912,42.7913546 200.031031,42.7323834 200.186792,42.7323834 C200.341912,42.7323834 200.497673,42.7913546 200.616256,42.9105789 C200.617538,42.9118609 200.617538,42.9144249 200.619461,42.9163479 L202.291807,44.5944626 C202.528333,44.8322703 202.528333,45.2175059 202.291807,45.4546726 C202.173224,45.573256 202.018104,45.6328681 201.862984,45.6328681 C201.707864,45.6328681 201.553385,45.573256 201.434802,45.4546726 L200.793811,44.8111175 L200.793811,48.6397574 C200.793811,48.9756367 200.522672,49.2480579 200.187433,49.2480579 C199.852836,49.2480579 199.581697,48.9756367 199.581697,48.6397574 L199.581697,44.8085536 L198.938142,45.4546726 C198.820199,45.573256 198.665079,45.6328681 198.509959,45.6328681 C198.35484,45.6328681 198.19972,45.573256 198.081777,45.4546726 C197.844611,45.2175059 197.844611,44.8322703 198.081777,44.5944626 L199.7522,42.9176298 L199.7522,42.9176298 Z" id="upload-icon"></path>
                </g>
            </g>
        </g>
    </g>
</svg>